HIERARCHY
ROOT Hips
{
	OFFSET 0.000000 0.000000 0.000000 
	CHANNELS 6 Xposition Yposition Zposition Zrotation Yrotation Xrotation
	JOINT LeftUpLeg
	{
		OFFSET 1.363060 -1.794630 0.839290 
		CHANNELS 3 Zrotation Yrotation Xrotation
		JOINT LeftLeg
		{
			OFFSET 2.448110 -6.726130 0.000000 
			CHANNELS 3 Zrotation Yrotation Xrotation
			JOINT LeftFoot
			{
				OFFSET 2.562200 -7.039590 0.000000 
				CHANNELS 3 Zrotation Yrotation Xrotation
				JOINT LeftToeBase
				{
					OFFSET 0.157640 -0.433110 2.322550 
					CHANNELS 3 Zrotation Yrotation Xrotation
					End Site
					{
						OFFSET 0.000000 0.000000 0.000000 
					}
				}
			}
		}
	}
	JOINT RightUpLeg
	{
		OFFSET -1.305520 -1.794630 0.839290 
		CHANNELS 3 Zrotation Yrotation Xrotation
		JOINT RightLeg
		{
			OFFSET -2.542530 -6.985550 0.000000 
			CHANNELS 3 Zrotation Yrotation Xrotation
			JOINT RightFoot
			{
				OFFSET -2.568260 -7.056230 0.000000 
				CHANNELS 3 Zrotation Yrotation Xrotation
				JOINT RightToeBase
				{
					OFFSET -0.164730 -0.452590 2.363150 
					CHANNELS 3 Zrotation Yrotation Xrotation
					End Site
					{
						OFFSET 0.000000 0.000000 0.000000 
					}
				}
			}
		}
	}
	JOINT Spine
	{
		OFFSET 0.028270 2.035590 -0.193380 
		CHANNELS 3 Zrotation Yrotation Xrotation
		JOINT Spine1
		{
			OFFSET 0.056720 2.048850 -0.042750 
			CHANNELS 3 Zrotation Yrotation Xrotation
			JOINT Neck1
			{
				OFFSET -0.054170 1.746240 0.172020 
				CHANNELS 3 Zrotation Yrotation Xrotation
				JOINT Head
				{
					OFFSET 0.104070 1.761360 -0.123970 
					CHANNELS 3 Zrotation Yrotation Xrotation
					End Site
					{
						OFFSET 0.000000 0.000000 0.000000 
					}
				}
			}
			JOINT LeftArm
			{
				OFFSET 3.362410 1.200890 -0.311210 
				CHANNELS 3 Zrotation Yrotation Xrotation
				JOINT LeftForeArm
				{
					OFFSET 4.983000 -0.000000 -0.000000 
					CHANNELS 3 Zrotation Yrotation Xrotation
					JOINT LeftHand
					{
						OFFSET 3.483560 -0.000000 -0.000000 
						CHANNELS 3 Zrotation Yrotation Xrotation
						JOINT LeftHandIndex1
						{
							OFFSET 0.715260 -0.000000 -0.000000 
							CHANNELS 3 Zrotation Yrotation Xrotation
							End Site
							{
								OFFSET 0.000000 0.000000 0.000000 
							}
						}
					}
				}
			}
			JOINT RightArm
			{
				OFFSET -3.136600 1.374050 -0.404650 
				CHANNELS 3 Zrotation Yrotation Xrotation
				JOINT RightForeArm
				{
					OFFSET -5.241900 -0.000000 -0.000000 
					CHANNELS 3 Zrotation Yrotation Xrotation
					JOINT RightHand
					{
						OFFSET -3.444170 -0.000000 -0.000000 
						CHANNELS 3 Zrotation Yrotation Xrotation
						JOINT RightHandIndex1
						{
							OFFSET -0.622530 -0.000000 -0.000000 
							CHANNELS 3 Zrotation Yrotation Xrotation
							End Site
							{
								OFFSET 0.000000 0.000000 0.000000 
							}
						}
					}
				}
			}
		}
	}
}
MOTION
Frames: 6
Frame Time: 0.041667
11.113877 17.632201 -2.729901 -1.525659 -6.895785 18.355104 -29.130343 -11.424891 -14.633431 -5.243444 9.017770 17.418838 -0.293265 5.021592 2.253149 0.620600 -5.041600 -14.027200 30.114959 28.940402 -18.784136 4.251793 -14.156255 24.767414 1.623547 -10.081673 -3.358736 -0.123900 2.269600 -6.251200 1.167419 -0.553130 -5.273302 -1.126507 -0.062997 3.758082 5.534525 -6.975367 16.459290 -0.573600 -2.514700 12.442400 -76.054395 3.816823 55.316824 13.604582 -17.016599 -3.011177 -1.285648 -1.978999 -43.026642 -7.125000 0.000000 0.000000 79.979518 -3.188479 12.294824 -15.134630 16.631573 -2.704263 0.944926 0.476873 -1.084920 7.125000 0.000000 0.000000 
11.091621 17.625733 -2.732423 -1.440044 -6.704555 18.388961 -29.115404 -11.565247 -14.764114 -5.239688 9.090281 17.530219 -0.270129 4.948181 2.219062 0.639900 -5.117600 -14.244400 30.078066 29.131635 -18.889289 4.216661 -14.264286 24.962903 1.713731 -10.397266 -3.586035 -0.121200 2.244300 -6.181300 1.100783 -0.396337 -5.250696 -1.285041 -0.000320 3.782876 5.543697 -6.893618 16.537063 -0.539700 -2.476200 12.402300 -75.779541 3.648119 55.823521 13.702964 -17.158760 -3.062048 -1.341495 -1.949865 -43.428029 -7.125000 0.000000 0.000000 80.178691 -3.243569 11.873305 -15.209245 16.744845 -2.732641 0.938690 0.486408 -1.140714 7.125000 0.000000 0.000000 
11.068488 17.616962 -2.720034 -1.387716 -6.708638 18.369100 -29.123807 -11.620138 -14.733178 -5.223641 9.139045 17.654217 -0.294021 5.007894 2.057901 0.648900 -5.152800 -14.344800 30.128256 29.396045 -18.881905 4.181291 -14.356109 25.152846 1.777698 -10.618120 -3.791119 -0.118600 2.220400 -6.115100 1.106209 -0.390999 -5.239763 -1.237035 0.005866 3.809756 5.608310 -6.487144 16.678237 -0.540300 -2.250900 12.425400 -75.796184 3.590126 55.746359 13.670056 -17.122798 -3.048461 -1.358184 -1.927883 -43.534805 -7.125000 0.000000 0.000000 80.112477 -3.241995 11.835515 -15.164998 16.685153 -2.714251 0.937484 0.484741 -1.118029 7.125000 0.000000 0.000000 
11.050179 17.612138 -2.715978 -1.312366 -6.570901 18.453237 -29.113164 -11.791328 -14.849161 -5.222790 9.203842 17.740523 -0.304129 5.044896 1.971143 0.666400 -5.220600 -14.538700 30.074895 29.513569 -19.036178 4.149098 -14.464819 25.347941 1.822730 -10.773155 -4.002949 -0.112500 2.162300 -5.954400 1.085454 -0.381960 -5.238100 -1.315145 0.000341 3.815037 5.670967 -6.319113 16.886582 -0.482500 -2.156000 12.579300 -75.755967 3.463699 55.468907 13.750477 -17.207690 -3.078516 -1.340742 -1.940263 -43.394509 -7.125000 0.000000 0.000000 80.184990 -3.306733 11.787195 -15.252711 16.797228 -2.746841 0.935241 0.487068 -1.134919 7.125000 0.000000 0.000000 
11.029349 17.605121 -2.709619 -1.231139 -6.473145 18.488682 -29.123574 -11.921774 -14.900877 -5.218411 9.257315 17.828095 -0.316683 5.082377 1.868756 0.682900 -5.283400 -14.718600 30.052232 29.677574 -19.127190 4.113090 -14.568747 25.548768 1.877214 -10.960712 -4.216964 -0.108100 2.120500 -5.838700 1.067780 -0.356331 -5.231414 -1.362183 0.008254 3.812049 5.700174 -6.088012 17.029263 -0.472400 -2.027900 12.629600 -75.714877 3.368236 55.324569 13.791191 -17.254707 -3.095267 -1.352551 -1.923719 -43.384526 -7.125000 0.000000 0.000000 80.221970 -3.368690 11.719256 -15.295717 16.852449 -2.762415 0.933313 0.490572 -1.155298 7.125000 0.000000 0.000000 
11.008408 17.597447 -2.701944 -1.143766 -6.384031 18.513497 -29.148542 -12.054237 -14.923724 -5.215070 9.303053 17.904165 -0.336739 5.143262 1.757452 0.702100 -5.355800 -14.926100 30.033286 29.832544 -19.209877 4.073587 -14.675684 25.764036 1.926980 -11.130232 -4.438047 -0.104000 2.079300 -5.724900 1.053961 -0.340606 -5.224644 -1.399302 0.012604 3.801672 5.721138 -5.852126 17.158675 -0.470900 -1.898200 12.666000 -75.702881 3.283208 55.093671 13.828259 -17.295222 -3.109596 -1.362118 -1.906102 -43.320331 -7.125000 0.000000 0.000000 80.239961 -3.439144 11.692808 -15.336433 16.903629 -2.777257 0.932064 0.494815 -1.174645 7.125000 0.000000 0.000000 
